<?xml version="1.0" encoding="UTF-8"?>
<svg id="Layer_2" data-name="Layer 2" xmlns="http://www.w3.org/2000/svg" viewBox="0 0 97.81 36.49">
  <defs>
    <style>
      .cls-1 {
        fill: #211915;
        stroke: #000;
        stroke-miterlimit: 10;
        stroke-width: .75px;
      }
    </style>
  </defs>
  <g id="Layer_1-2" data-name="Layer 1">
    <g>
      <path class="cls-1" d="M32.46,33.6c-1.48.72-3.52,1.19-6.13,1.42-1.09-4.75-1.76-9.67-2-14.75-.68.07-1.79.1-3.32.1-2.59,0-4.82-.15-6.69-.46-.88,4.59-2.14,8.11-3.8,10.55-1.65,2.44-3.6,3.66-5.85,3.66-1.12,0-2.12-.53-2.99-1.6-.87-1.07-1.31-2.2-1.31-3.41,0-.98.39-2.03,1.17-3.16.78-1.13,1.62-1.7,2.51-1.7.47,0,.95.26,1.43.77.48.51.72,1.01.72,1.5,0,.57-.17,1.16-.51,1.77s-.75.92-1.22.92c-.07,0-.19-.05-.37-.15.47-.36.71-.81.71-1.34,0-.34-.12-.68-.37-1.01-.24-.33-.52-.5-.83-.5-1.53,0-2.29.68-2.29,2.05,0,1.25.34,2.18,1.03,2.77.68.59,1.84.89,3.47.89,2.33,0,3.94-1.36,4.85-4.09.9-2.73,1.35-5.55,1.35-8.46-5.47-1.24-8.2-3.11-8.2-5.62,0-.72.22-1.37.67-1.95.45-.59.99-.88,1.62-.88h.51c-.57.68-.85,1.46-.85,2.34,0,1.24.55,2.31,1.66,3.22,1.11.91,2.62,1.59,4.54,2.03-.1-1.25-.15-2.51-.15-3.76,0-2.51.32-4.58.95-6.21s1.7-3.09,3.2-4.37c1.5-1.28,3.18-2.23,5.05-2.86,1.87-.63,3.78-.94,5.74-.94,1.17,0,1.86.02,2.05.05-1.43,6.67-2.23,12.59-2.39,17.75.29-.06.74-.2,1.34-.42l.1,2.15c-.7.07-1.18.11-1.44.15v1.76c0,5.18.32,9.09.95,11.74,1.2-.03,2.8-.45,4.79-1.25l.29,1.29ZM25.11,1.57c-2.78-.1-5.07.83-6.87,2.78-1.8,1.95-2.96,6.04-3.48,12.26-.08,1.09-.16,1.87-.24,2.34,1.35.15,2.42.22,3.2.22,1.74,0,3.91-.19,6.52-.56-.08-1.94-.12-3.45-.12-4.54,0-4.43.33-8.59,1-12.5Z"/>
      <path class="cls-1" d="M47.11,6.36c-.39-.2-.76-.29-1.1-.29-.46,0-.68.52-.68,1.56,0,.34.16.66.48.95s.67.44,1.06.44c1.5,0,2.25-1.32,2.25-3.96,0-1.06-.42-1.97-1.25-2.75-.84-.77-1.81-1.16-2.93-1.16-1.49,0-2.79.57-3.88,1.7-1.1,1.13-1.64,2.4-1.64,3.82,0,1.16.43,2.29,1.29,3.41.86,1.12,2.59,2.38,5.19,3.8s4.45,2.5,5.56,3.25c1.1.75,2.04,1.66,2.82,2.73s1.16,2.31,1.16,3.71c0,2.62-1.18,5.12-3.55,7.51-2.37,2.38-4.98,3.58-7.85,3.58-2.08,0-3.9-.81-5.46-2.42-1.55-1.61-2.33-3.48-2.33-5.62,0-1.71.75-3.25,2.26-4.64,1.51-1.38,3.06-2.08,4.65-2.08,1.48,0,2.67.35,3.58,1.06s1.35,1.66,1.35,2.84c0,1.25-.51,2.34-1.53,3.27-1.02.93-2.18,1.39-3.48,1.39-.55,0-1.01-.2-1.38-.6-.37-.4-.55-.85-.55-1.35s.19-.92.56-1.23c.37-.32.85-.48,1.44-.48.46,0,.78.19.98.56-.86.26-1.29.57-1.29.93,0,.91.42,1.37,1.25,1.37.65,0,1.18-.35,1.6-1.04.42-.69.62-1.43.62-2.21,0-.99-.34-1.85-1.03-2.58-.68-.72-1.51-1.09-2.49-1.09-1.29,0-2.27.59-2.97,1.78-.69,1.19-1.04,2.74-1.04,4.66,0,1.74.55,3.24,1.65,4.5,1.1,1.26,2.45,1.89,4.06,1.89,2.51,0,4.65-.87,6.43-2.62,1.78-1.75,2.67-4.06,2.67-6.92,0-1.32-.39-2.44-1.16-3.36-.77-.92-1.73-1.68-2.86-2.28-1.13-.6-2.68-1.3-4.65-2.1-1.97-.8-3.56-1.52-4.77-2.16-1.21-.64-2.24-1.48-3.08-2.53-.84-1.04-1.26-2.31-1.26-3.81,0-2.07.92-3.82,2.77-5.25,1.85-1.43,4.01-2.15,6.48-2.15,1.59,0,2.95.39,4.05,1.16,1.11.77,1.66,1.79,1.66,3.04,0,1.42-.37,2.63-1.11,3.64-.74,1.01-1.72,1.51-2.94,1.51-.94,0-1.76-.21-2.44-.62s-1.03-.97-1.03-1.67c0-.59.21-1.12.62-1.6.42-.48.95-.72,1.6-.72,1.09,0,1.64.4,1.64,1.2Z"/>
      <path class="cls-1" d="M94.23,30.6c.42.15.63.39.63.73,0,.8-.56,1.2-1.68,1.2-.5,0-1.03-.23-1.56-.68-.54-.46-.81-.93-.81-1.42,0-.72.41-1.39,1.22-2.03.81-.63,1.69-.95,2.64-.95.72,0,1.35.31,1.92.94.56.63.84,1.43.84,2.4,0,1.07-.55,2.23-1.64,3.47-1.09,1.24-2.08,1.86-2.98,1.86-1.71,0-2.97-.53-3.77-1.6s-1.3-2.34-1.49-3.83c-.19-1.49-.28-3.42-.28-5.8l.32-13.31c0-1.33-.04-2.71-.12-4.13-4.28,8.53-6.86,14.67-7.74,18.41l-1.42.1c-1.4-3.08-3.13-6.64-5.2-10.69-2.07-4.05-3.39-7.2-3.98-9.45-.21,2.57-.32,5.57-.32,8.98,0,5.65.3,11.65.9,18.02,1.16,0,2.69.1,4.61.29l-.17.95c-6.84-.21-10.35-.34-10.55-.39l.1-1.22c2.15.29,3.78.42,4.91.37-1.29-8.19-1.87-17.85-1.76-29-2.66,0-4.5.07-5.52.22-1.02.15-1.86.59-2.53,1.32-.67.73-1,1.7-1,2.91,0,.9.34,1.63,1.02,2.2.68.57,1.43.85,2.24.85.47,0,.91-.12,1.31-.37.4-.24.6-.52.6-.83,0-.18-.11-.38-.32-.61-.21-.23-.39-.34-.54-.34-.79,0-1.46.32-2.02.95-.34-.23-.52-.5-.52-.81,0-.42.21-.79.63-1.11s.78-.48,1.09-.48c.57,0,1.18.24,1.82.72.64.48.96,1.01.96,1.57,0,.77-.3,1.46-.89,2.1-.59.63-1.23.95-1.92.95-1.09,0-2.06-.46-2.92-1.37-.85-.91-1.28-2.16-1.28-3.74,0-1.24.51-2.39,1.54-3.45,1.03-1.07,2.23-1.6,3.61-1.6,1.2,0,2.96-.07,5.27-.21,2.31-.14,3.91-.29,4.79-.45l.34,1.05c-1.2.15-2.11.22-2.71.22,1.58,4.67,4.9,10.56,9.96,17.65,1.97-4.9,3.54-8.55,4.72-10.96,1.18-2.41,2.15-4.71,2.92-6.91-.24-.06-1.36-.24-3.34-.54l.29-1c.55.18,2.22.44,4.99.77,2.77.33,5.13.54,7.07.62l-.24,1.05c-1.22,0-2.84-.15-4.86-.44-.13.57-.5,4.29-1.12,11.15-.62,6.87-.93,11.92-.93,15.16,0,3.53.95,5.3,2.86,5.3.93,0,1.73-.39,2.39-1.16.67-.77,1-1.74,1-2.89,0-2.13-.51-3.2-1.54-3.2-.36,0-.74.17-1.15.5-.41.33-.61.7-.61,1.11,0,.54.13,1.02.39,1.45.26.43.54.65.85.65.44,0,.66-.42.66-1.25Z"/>
    </g>
  </g>
</svg>